<svg xmlns="http://www.w3.org/2000/svg" width="26.491" height="26.502" viewBox="0 0 26.491 26.502">
  <g id="Vrstva_2" data-name="Vrstva 2" transform="translate(0 0.03)">
    <g id="Vrstva_1" data-name="Vrstva 1" transform="translate(0 -0.03)">
      <path id="Path_20" data-name="Path 20" d="M23.653,2.812H20.815V.92a.946.946,0,0,0-1.892,0V2.812H7.569V.92a.95.95,0,1,0-1.9,0V2.812H2.838A2.838,2.838,0,0,0,0,5.65V23.634a2.838,2.838,0,0,0,2.838,2.838H23.653a2.838,2.838,0,0,0,2.838-2.838V5.65a2.838,2.838,0,0,0-2.838-2.838ZM24.6,23.627a.946.946,0,0,1-.946.946H2.838a.946.946,0,0,1-.946-.946v-12.3H24.6Zm0-14.191H1.892V5.65A.946.946,0,0,1,2.838,4.7H5.676V6.6a.95.95,0,1,0,1.9,0V4.7H18.93V6.6a.946.946,0,1,0,1.892,0V4.7H23.66a.946.946,0,0,1,.946.946V9.436Z" transform="translate(0 0.03)" fill="#292929"/>
      <path id="Path_21" data-name="Path 21" d="M35.147,90.59h-1.9a.946.946,0,1,0,0,1.892h1.9a.946.946,0,0,0,0-1.892Z" transform="translate(-27.577 -77.34)" fill="#292929"/>
      <path id="Path_22" data-name="Path 22" d="M80.488,90.59H78.6a.946.946,0,0,0,0,1.892h1.892a.946.946,0,0,0,0-1.892Z" transform="translate(-66.297 -77.34)" fill="#292929"/>
      <path id="Path_23" data-name="Path 23" d="M125.788,90.59H123.9a.946.946,0,0,0,0,1.892h1.892a.946.946,0,1,0,0-1.892Z" transform="translate(-104.973 -77.34)" fill="#292929"/>
      <path id="Path_24" data-name="Path 24" d="M35.356,116.47h-1.9a.947.947,0,0,0,0,1.893h1.9a.947.947,0,0,0,0-1.893Z" transform="translate(-27.786 -99.436)" fill="#292929"/>
      <path id="Path_25" data-name="Path 25" d="M80.7,116.47H78.8a.947.947,0,0,0,0,1.893H80.7a.947.947,0,0,0,0-1.893Z" transform="translate(-66.505 -99.436)" fill="#292929"/>
      <path id="Path_26" data-name="Path 26" d="M126,116.47H124.1a.947.947,0,0,0,0,1.893H126a.947.947,0,0,0,0-1.893Z" transform="translate(-105.182 -99.436)" fill="#292929"/>
      <path id="Path_27" data-name="Path 27" d="M35.147,142.36h-1.9a.946.946,0,1,0,0,1.892h1.9a.946.946,0,1,0,0-1.892Z" transform="translate(-27.577 -121.541)" fill="#292929"/>
      <path id="Path_28" data-name="Path 28" d="M80.488,142.36H78.6a.946.946,0,0,0,0,1.892h1.892a.946.946,0,1,0,0-1.892Z" transform="translate(-66.297 -121.541)" fill="#292929"/>
      <path id="Path_29" data-name="Path 29" d="M125.788,142.36H123.9a.946.946,0,1,0,0,1.892h1.892a.946.946,0,1,0,0-1.892Z" transform="translate(-104.973 -121.541)" fill="#292929"/>
    </g>
  </g>
</svg>
