<svg xmlns="http://www.w3.org/2000/svg" width="26.3" height="26.3" viewBox="0 0 26.3 26.3">
  <g id="Vrstva_2" data-name="Vrstva 2" transform="translate(-0.84 -0.85)">
    <g id="Vrstva_1" data-name="Vrstva 1" transform="translate(0.99 1)">
      <path id="Path_18" data-name="Path 18" d="M57.219,21.059a.978.978,0,0,0-1.385,0L44.079,32.79l-4.241-4.615A.98.98,0,1,0,38.4,29.5l4.932,5.357a.973.973,0,0,0,.7.321h.021a.98.98,0,0,0,.692-.286L57.218,22.446A.98.98,0,0,0,57.219,21.059Z" transform="translate(-31.963 -17.505)" fill="#292929" stroke="#292929" stroke-miterlimit="10" stroke-width="0.3"/>
      <path id="Path_19" data-name="Path 19" d="M26.01,13.02a.98.98,0,0,0-.98.98A11.04,11.04,0,1,1,13.991,2.96a.98.98,0,1,0,0-1.96,13,13,0,1,0,13,13,.978.978,0,0,0-.98-.979Z" transform="translate(-0.99 -1)" fill="#292929" stroke="#292929" stroke-miterlimit="10" stroke-width="0.3"/>
    </g>
  </g>
</svg>
