<svg id="Vrstva_2" data-name="Vrstva 2" xmlns="http://www.w3.org/2000/svg" width="25.874" height="24.139" viewBox="0 0 25.874 24.139">
  <g id="Vrstva_1" data-name="Vrstva 1">
    <g id="Path_30" data-name="Path 30" transform="translate(-59.912 -37.424)" fill="#292929">
      <path d="M 71.22586822509766 45.82674026489258 C 70.70155334472656 45.82674026489258 70.27499389648438 45.40018081665039 70.27499389648438 44.87586975097656 C 70.27499389648438 44.35155868530273 70.70155334472656 43.92499923706055 71.22586822509766 43.92499923706055 L 77.65219879150391 43.92499923706055 C 78.17650604248047 43.92499923706055 78.60306549072266 44.35155868530273 78.60306549072266 44.87586975097656 C 78.60306549072266 45.12985992431641 78.50415802001953 45.3686408996582 78.32456207275391 45.5482292175293 C 78.14496612548828 45.72782897949219 77.90618896484375 45.82672882080078 77.65219879150391 45.82672882080078 L 71.22586822509766 45.82674026489258 Z" stroke="none"/>
      <path d="M 71.22586822509766 44 C 70.74290466308594 44 70.34999847412109 44.39291000366211 70.34999847412109 44.87586975097656 C 70.34999847412109 45.35882949829102 70.74290466308594 45.75173950195312 71.22586822509766 45.75173950195312 L 77.65221405029297 45.75172805786133 C 78.13515472412109 45.75172805786133 78.52806854248047 45.35881805419922 78.52806854248047 44.87586975097656 C 78.52806854248047 44.39291000366211 78.13515472412109 44 77.65219879150391 44 L 71.22586822509766 44 M 71.22586822509766 43.84999847412109 L 77.65219879150391 43.84999847412109 C 78.21876525878906 43.84999847412109 78.67806243896484 44.30929946899414 78.67806243896484 44.87586975097656 C 78.67806243896484 45.44244003295898 78.21876525878906 45.90174102783203 77.65219879150391 45.90172958374023 L 71.22586822509766 45.90174102783203 C 70.65929412841797 45.90174102783203 70.19999694824219 45.44244003295898 70.19999694824219 44.87586975097656 C 70.19999694824219 44.30929946899414 70.65929412841797 43.84999847412109 71.22586822509766 43.84999847412109 Z" stroke="none" fill="#f5f5f5"/>
    </g>
    <g id="Path_31" data-name="Path 31" transform="translate(-59.912 -66.287)" fill="#292929">
      <path d="M 80.11280822753906 79.646728515625 L 71.22587585449219 79.646728515625 C 70.70156097412109 79.646728515625 70.27500152587891 79.22018432617188 70.27500152587891 78.69586944580078 C 70.27500152587891 78.17156219482422 70.70156097412109 77.74500274658203 71.22587585449219 77.74500274658203 L 80.11280822753906 77.74500274658203 C 80.63712310791016 77.74500274658203 81.06368255615234 78.17156219482422 81.06368255615234 78.69586944580078 C 81.06368255615234 79.22018432617188 80.63712310791016 79.646728515625 80.11280822753906 79.646728515625 Z" stroke="none"/>
      <path d="M 71.22587585449219 77.81999969482422 C 70.74291229248047 77.81999969482422 70.34999084472656 78.21291351318359 70.34999084472656 78.69586944580078 C 70.34999084472656 79.17882537841797 70.74291229248047 79.57173156738281 71.22587585449219 79.57173156738281 L 80.11280822753906 79.57173156738281 C 80.59577178955078 79.57173156738281 80.98868560791016 79.17882537841797 80.98868560791016 78.69586944580078 C 80.98868560791016 78.21291351318359 80.59577178955078 77.81999969482422 80.11280822753906 77.81999969482422 L 71.22587585449219 77.81999969482422 M 71.22587585449219 77.66999816894531 L 80.11280822753906 77.66999816894531 C 80.67938232421875 77.66999816894531 81.13867950439453 78.12929534912109 81.13867950439453 78.69586944580078 C 81.13867950439453 79.26242828369141 80.67938232421875 79.72173309326172 80.11280822753906 79.72173309326172 L 71.22587585449219 79.72173309326172 C 70.65929412841797 79.72173309326172 70.19998931884766 79.26242828369141 70.19998931884766 78.69586944580078 C 70.19998931884766 78.12929534912109 70.65929412841797 77.66999816894531 71.22587585449219 77.66999816894531 Z" stroke="none" fill="#f5f5f5"/>
    </g>
    <g id="Path_32" data-name="Path 32" fill="#292929">
      <path d="M 3.861749649047852 24.06367683410645 C 1.776089668273926 24.06130599975586 0.07736970484256744 22.36258697509766 0.07499970495700836 20.27692604064941 L 0.07499970495700836 14.56146717071533 C 0.07736970484256744 12.47588729858398 1.77610969543457 10.77649688720703 3.861769676208496 10.77333736419678 L 5.673049926757812 10.77333736419678 L 5.748049736022949 10.77333736419678 L 5.748049736022949 10.69833660125732 L 5.748049736022949 1.025866866111755 C 5.748049736022949 0.5015568733215332 6.174609661102295 0.07499688863754272 6.698919773101807 0.07499688863754272 L 24.84944915771484 0.07499688863754272 C 25.37290954589844 0.07574689388275146 25.79886054992676 0.5023068785667419 25.79886054992676 1.025866866111755 L 25.79884910583496 19.52373695373535 C 25.79647064208984 22.00527763366699 23.77560997009277 24.02679634094238 21.29398918151855 24.02996635437012 L 4.375109672546387 24.03009605407715 L 4.370209693908691 24.03009605407715 L 4.365359783172607 24.03073692321777 C 4.198639869689941 24.0525951385498 4.029200553894043 24.06367492675781 3.861730337142944 24.06367683410645 L 3.861749649047852 24.06367683410645 Z M 3.86294960975647 12.67507648468018 C 2.825389623641968 12.67757701873779 1.979239702224731 13.52372646331787 1.976739645004272 14.56128692626953 L 1.976739645004272 20.26821708679199 C 1.978409647941589 21.30672645568848 2.824559688568115 22.15356636047363 3.86294960975647 22.15607643127441 L 3.938129663467407 22.15625762939453 L 3.938129663467407 22.12090682983398 L 4.20898962020874 22.12090682983398 L 4.216269493103027 22.12090682983398 L 4.223409652709961 22.1195068359375 C 5.105148792266846 21.9467716217041 5.746772289276123 21.16952896118164 5.749516010284424 20.27115631103516 L 5.749519824981689 20.27115631103516 L 5.749519824981689 20.26986694335938 L 5.749519824981689 12.75007724761963 L 5.749519824981689 12.67507648468018 L 5.674519538879395 12.67507648468018 L 3.863129615783691 12.67507648468018 L 3.86303973197937 12.67507648468018 L 3.86294960975647 12.67507648468018 Z M 7.655649662017822 1.976736903190613 L 7.655649662017822 2.051736831665039 L 7.655649662017822 20.26968765258789 C 7.654629707336426 20.87384605407715 7.505579471588135 21.47603607177734 7.224589824676514 22.01103782653809 L 7.166879653930664 22.12090682983398 L 7.290989875793457 22.12090682983398 L 21.29409027099609 22.12090682983398 C 21.98670959472656 22.11185646057129 22.6369800567627 21.83751678466797 23.12608909606934 21.34840774536133 C 23.61520004272461 20.85929679870605 23.88953971862793 20.20902633666992 23.89858055114746 19.51738739013672 L 23.89859008789062 2.051736831665039 L 23.89859008789062 1.976736903190613 L 23.82358932495117 1.976736903190613 L 7.730649471282959 1.976736903190613 L 7.655649662017822 1.976736903190613 Z" stroke="none"/>
      <path d="M 6.698919296264648 0.1499977111816406 C 6.215959548950195 0.1499977111816406 5.823049545288086 0.54290771484375 5.823049545288086 1.025867462158203 L 5.823049545288086 10.69833660125732 L 5.823049545288086 10.84833717346191 L 5.673049926757812 10.84833717346191 L 3.861888885498047 10.84833717346191 C 1.817470550537109 10.85143661499023 0.1523189544677734 12.51721668243408 0.1499996185302734 14.56146717071533 L 0.1499996185302734 20.27684783935547 C 0.1523189544677734 22.32123756408691 1.817440032958984 23.98635673522949 3.861888885498047 23.98866653442383 C 4.026020050048828 23.98866653442383 4.192129135131836 23.97779655456543 4.355609893798828 23.95636749267578 L 4.365320205688477 23.95509719848633 L 4.375110626220703 23.95509719848633 L 21.29389953613281 23.9549674987793 C 23.73424911499023 23.95184707641602 25.72150993347168 21.96394729614258 25.72385025024414 19.52373695373535 L 25.7238597869873 1.025867462158203 C 25.7238597869873 0.5435962677001953 25.33151054382324 0.1506862640380859 24.84944915771484 0.1499977111816406 L 6.698919296264648 0.1499977111816406 M 21.29507064819336 22.19590759277344 L 21.29409027099609 22.19590759277344 L 7.290988922119141 22.19590759277344 L 7.042779922485352 22.19590759277344 L 7.15818977355957 21.97615623474121 C 7.433568954467773 21.45183753967285 7.579648971557617 20.86166763305664 7.580650329589844 20.26968765258789 L 7.580650329589844 2.051736831665039 L 7.580650329589844 1.901737213134766 L 7.730649948120117 1.901737213134766 L 23.82358932495117 1.901737213134766 L 23.97358894348145 1.901737213134766 L 23.97358894348145 2.051736831665039 L 23.97357940673828 19.51836776733398 C 23.96427917480469 20.22967720031738 23.6821403503418 20.8984260559082 23.17911911010742 21.40143585205078 C 22.67610931396484 21.90445709228516 22.00736045837402 22.18659591674805 21.29604911804199 22.19589614868164 L 21.29507064819336 22.19590759277344 M 5.82451057434082 20.2700366973877 L 5.82451057434082 20.27115631103516 L 5.824506759643555 20.27115631103516 C 5.821748733520508 21.20527076721191 5.154628753662109 22.01350402832031 4.237829208374023 22.19310760498047 L 4.223539352416992 22.19590759277344 L 4.208990097045898 22.19590759277344 L 4.013120651245117 22.19590759277344 L 4.013120651245117 22.23143768310547 L 3.862760543823242 22.23107719421387 C 2.78318977355957 22.22846603393555 1.903480529785156 21.34803771972656 1.901729583740234 20.26821708679199 L 1.901729583740234 14.56110668182373 C 1.904338836669922 13.48238658905029 2.784059524536133 12.60267734527588 3.863130569458008 12.60007667541504 L 5.674509048461914 12.60007667541504 L 5.82451057434082 12.60007667541504 L 5.82451057434082 12.75007724761963 L 5.82451057434082 20.26968765258789 L 5.82451057434082 20.2700366973877 M 6.698919296264648 -3.814697265625e-06 L 24.84944915771484 -3.814697265625e-06 C 25.41544914245605 0.0008068084716796875 25.87385940551758 0.4598674774169922 25.87385940551758 1.025867462158203 L 25.87384986877441 19.52373695373535 C 25.87142944335938 22.05230712890625 23.8226490020752 24.10173606872559 21.29409027099609 24.10496711730957 L 4.375110626220703 24.1050968170166 C 4.204622268676758 24.1274471282959 4.032875061035156 24.1386661529541 3.861888885498047 24.1386661529541 C 3.861814498901367 24.1386661529541 3.861732482910156 24.1386661529541 3.861660003662109 24.1386661529541 C 1.729928970336914 24.13625717163086 0.002420425415039062 22.40874671936035 0 20.27701759338379 L 0 14.56146717071533 C 0.002420425415039062 12.42949676513672 1.729690551757812 10.70156669616699 3.861660003662109 10.69833660125732 L 5.673049926757812 10.69833660125732 L 5.673049926757812 1.025867462158203 C 5.673049926757812 0.4592971801757812 6.132349014282227 -3.814697265625e-06 6.698919296264648 -3.814697265625e-06 Z M 21.29409027099609 22.04590606689453 C 22.68350028991699 22.02774620056152 23.80542945861816 20.90581703186035 23.82358932495117 19.51640701293945 L 23.82358932495117 2.051736831665039 L 7.730649948120117 2.051736831665039 L 7.730649948120117 20.26968765258789 C 7.729610443115234 20.8885669708252 7.578760147094727 21.49799728393555 7.290988922119141 22.04590606689453 L 21.29409027099609 22.04590606689453 Z M 5.674509048461914 20.26968765258789 L 5.674509048461914 12.75007724761963 L 3.863130569458008 12.75007724761963 C 2.863729476928711 12.75248718261719 2.054149627685547 13.56206703186035 2.051729202270508 14.56146717071533 L 2.051729202270508 20.26821708679199 C 2.053350448608398 21.26819610595703 2.8631591796875 22.07865715026855 3.863119125366211 22.08107757568359 L 3.863119125366211 22.04590606689453 L 4.208990097045898 22.04590606689453 C 5.058778762817383 21.87942695617676 5.672479629516602 21.13562774658203 5.674509048461914 20.26968765258789 L 5.674509048461914 20.27115631103516 L 5.674509048461914 20.26968765258789 Z" stroke="none" fill="#f5f5f5"/>
    </g>
    <g id="Path_33" data-name="Path 33" transform="translate(-59.912 -93.359)" fill="#292929">
      <path d="M 77.65219879150391 111.3667373657227 L 71.22586822509766 111.3667373657227 C 70.70155334472656 111.3667373657227 70.27499389648438 110.9401779174805 70.27499389648438 110.4158630371094 C 70.27499389648438 109.8915481567383 70.70155334472656 109.4650039672852 71.22586822509766 109.4650039672852 L 77.65219879150391 109.4650039672852 C 78.17650604248047 109.4650039672852 78.60306549072266 109.8915481567383 78.60306549072266 110.4158630371094 C 78.60306549072266 110.9401779174805 78.17650604248047 111.3667373657227 77.65219879150391 111.3667373657227 Z" stroke="none"/>
      <path d="M 71.22586822509766 109.5400009155273 C 70.74290466308594 109.5400009155273 70.34999847412109 109.9329071044922 70.34999847412109 110.4158630371094 C 70.34999847412109 110.8988189697266 70.74290466308594 111.2917404174805 71.22586822509766 111.2917404174805 L 77.65219879150391 111.2917404174805 C 78.13515472412109 111.2917404174805 78.52806854248047 110.8988189697266 78.52806854248047 110.4158630371094 C 78.52806854248047 109.9329071044922 78.13515472412109 109.5400009155273 77.65219879150391 109.5400009155273 L 71.22586822509766 109.5400009155273 M 71.22586822509766 109.3899993896484 L 77.65219879150391 109.3899993896484 C 78.21876525878906 109.3899993896484 78.67806243896484 109.8492889404297 78.67806243896484 110.4158630371094 C 78.67806243896484 110.9824371337891 78.21876525878906 111.4417419433594 77.65219879150391 111.4417419433594 L 71.22586822509766 111.4417419433594 C 70.65929412841797 111.4417419433594 70.19999694824219 110.9824371337891 70.19999694824219 110.4158630371094 C 70.19999694824219 109.8492889404297 70.65929412841797 109.3899993896484 71.22586822509766 109.3899993896484 Z" stroke="none" fill="#f5f5f5"/>
    </g>
  </g>
</svg>
