<svg xmlns="http://www.w3.org/2000/svg" width="19.901" height="22.766" viewBox="0 0 19.901 22.766">
  <g id="Vrstva_2" data-name="Vrstva 2" transform="translate(-0.5 -3.008)">
    <g id="Vrstva_1" data-name="Vrstva 1" transform="translate(0.5 3.008)">
      <path id="Path_34" data-name="Path 34" d="M16.281,9.31a5.037,5.037,0,1,0-8.143-3.4,4.012,4.012,0,0,0-4.68,6.443A4.943,4.943,0,0,0,.5,16.876v4.663A1.558,1.558,0,0,0,2.056,23.1H18.6a1.806,1.806,0,0,0,1.8-1.8V15.177a6.243,6.243,0,0,0-4.121-5.861ZM13.151,1.876a3.5,3.5,0,1,1-3.519,3.5,3.5,3.5,0,0,1,3.519-3.5ZM6.208,6.945a2.486,2.486,0,0,1,2.431,3.072,6.285,6.285,0,0,0-1.757,1.808,2.548,2.548,0,0,1-.674.09,2.486,2.486,0,1,1,0-4.969ZM2.024,21.539V16.876a3.414,3.414,0,0,1,3.411-3.41h.706a6.208,6.208,0,0,0-.238,1.71v6.116a1.816,1.816,0,0,0,.022.278H2.056A.034.034,0,0,1,2.024,21.539Zm16.852-.247a.282.282,0,0,1-.278.278H7.705a.282.282,0,0,1-.279-.278V15.176a4.714,4.714,0,0,1,4.714-4.714h2.027a4.714,4.714,0,0,1,4.714,4.714Z" transform="translate(-0.5 -0.331)" fill="#292929"/>
    </g>
  </g>
</svg>
