<?xml version="1.0" encoding="utf-8"?>
<!-- Generator: Adobe Illustrator 24.3.0, SVG Export Plug-In . SVG Version: 6.00 Build 0)  -->
<svg version="1.1" id="Vrstva_1" xmlns="http://www.w3.org/2000/svg" xmlns:xlink="http://www.w3.org/1999/xlink" x="0px" y="0px"
	 viewBox="0 0 287.13 142.87" style="enable-background:new 0 0 287.13 142.87;" xml:space="preserve">
<path d="M36.45,76.45H15.11c-4.98,0-11.56-0.89-14.76-4.44v-8H35.2c3.2,0,4.62-1.78,4.62-4.62v-7.29c0-3.56-1.07-4.98-5.33-5.51
	l-17.6-2.49C4.62,42.31,0,38.94,0,28.27V16.89C0,6.22,5.69,0,20.27,0h17.07c4.98,0,11.91,1.24,14.58,4.44v8.36H19.38
	c-3.38,0-4.62,1.24-4.62,4.98v6.76c0,3.56,2.13,4.8,5.51,5.16l20.27,2.67c10.67,1.42,14.4,4.62,14.4,15.82v11.73
	C55.12,70.94,50.31,76.45,36.45,76.45 M64.89,75.21V1.6h52.09l-1.6,12.45H81.25v17.6h26.14v12.62H81.25v18.31h33.78l1.96,12.62
	H64.89z M127.65,1.6h16.36v73.61h-16.36V1.6z M235.75,37.16V13.51h23.29c4.44,0,6.76,1.96,6.76,6.4V30.4c0,4.62-2.31,6.58-6.76,6.58
	h-14.76v12.27l24,25.6h18.85l-26.31-26.67h5.33c13.33,0,15.82-10.31,15.82-18.13v-9.96c0-9.96-3.91-18.85-19.2-18.85h-43.74v73.61
	h16.53V49.07 M157.34,75.03V1.42h52.09l-1.6,12.62H173.7v17.42h26.14v12.62H173.7V62.4h33.78l1.96,12.62H157.34z M6.69,91.89v18.2
	h24.35v5.35H6.69v26.49H0V86.67h37.87v5.22H6.69z M43.22,86.67h6.69v55.26h-6.69V86.67z M81.88,91.89v50.04h-6.69V91.89H56.06v-5.22
	h44.96v5.22H81.88z M141.96,141.93L114.8,99.52l-3.34-6.69h-0.13l0.8,14.58v34.52h-5.75V86.67h7.23l25.15,39.47l4.15,7.49h0.13
	l-0.67-16.32V86.67h5.75v55.26H141.96z M157.08,141.93V86.67h37.73v5.22H163.9v18.2h24.35v5.35H163.9v21.27h30.91v5.22H157.08z
	 M230,142.87h-19.94c-2.68,0-7.09-0.27-9.1-2.14v-3.48h28.23c4.68,0,5.62-2.68,5.62-5.22v-7.36c0-4.42-1.87-6.02-6.96-6.69
	l-14.45-1.87c-8.03-1.07-11.91-3.75-11.91-10.57v-7.76c0-6.02,2.41-12.04,13.25-12.04h14.85c2.68,0,7.09,0.27,9.1,2.14v3.48h-24.49
	c-4.95,0-6.29,2.41-6.29,5.89v7.49c0,3.88,3.88,4.82,7.49,5.35l14.05,1.87c8.03,1.07,12.04,4.28,12.04,11.24v8.96
	C241.24,140.06,236.96,142.87,230,142.87 M275.76,142.87h-19.94c-2.68,0-7.09-0.27-9.1-2.14v-3.48h28.23c4.68,0,5.62-2.68,5.62-5.22
	v-7.36c0-4.42-1.87-6.02-6.96-6.69l-14.45-1.87c-8.03-1.07-11.91-3.75-11.91-10.57v-7.76c0-6.02,2.41-12.04,13.25-12.04h14.85
	c2.68,0,7.09,0.27,9.1,2.14v3.48h-24.49c-4.95,0-6.29,2.41-6.29,5.89v7.49c0,3.88,3.88,4.82,7.49,5.35l13.92,1.87
	c8.03,1.07,12.04,4.28,12.04,11.24v8.96C287.13,140.06,282.72,142.87,275.76,142.87"/>
</svg>
