<?xml version="1.0" encoding="utf-8"?>
<!-- Generator: Adobe Illustrator 24.3.0, SVG Export Plug-In . SVG Version: 6.00 Build 0)  -->
<svg version="1.1" id="Vrstva_1" xmlns="http://www.w3.org/2000/svg" xmlns:xlink="http://www.w3.org/1999/xlink" x="0px" y="0px"
	 viewBox="0 0 287.1 142.9" style="enable-background:new 0 0 287.1 142.9;" xml:space="preserve">
<style type="text/css">
	.st0{fill:#FFFFFF;}
</style>
<path class="st0" d="M36.5,76.4H15.1c-5,0-11.6-0.9-14.8-4.4v-8h34.9c3.2,0,4.6-1.8,4.6-4.6v-7.3c0-3.6-1.1-5-5.3-5.5l-17.6-2.5
	C4.6,42.3,0,38.9,0,28.3V16.9C0,6.2,5.7,0,20.3,0h17.1c5,0,11.9,1.2,14.6,4.4v8.4H19.4c-3.4,0-4.6,1.2-4.6,5v6.8
	c0,3.6,2.1,4.8,5.5,5.2l20.3,2.7c10.7,1.4,14.4,4.6,14.4,15.8v11.7C55.1,70.9,50.3,76.4,36.5,76.4 M64.9,75.2V1.6H117L115.4,14H81.2
	v17.6h26.1v12.6H81.2v18.3H115l2,12.6L64.9,75.2L64.9,75.2z M127.7,1.6H144v73.6h-16.4C127.7,75.2,127.7,1.6,127.7,1.6z M235.8,37.2
	V13.5H259c4.4,0,6.8,2,6.8,6.4v10.5c0,4.6-2.3,6.6-6.8,6.6h-14.8v12.3l24,25.6h18.9l-26.3-26.7h5.3c13.3,0,15.8-10.3,15.8-18.1v-10
	c0-10-3.9-18.8-19.2-18.8H219v73.6h16.5V49.1 M157.3,75V1.4h52.1L207.8,14h-34.1v17.4h26.1v12.6h-26.1v18.3h33.8l2,12.6L157.3,75
	L157.3,75z M6.7,91.9v18.2H31v5.3H6.7v26.5H0V86.7h37.9v5.2H6.7z M43.2,86.7h6.7v55.3h-6.7V86.7z M81.9,91.9v50h-6.7v-50H56.1v-5.2
	h45v5.2H81.9z M142,141.9l-27.2-42.4l-3.3-6.7h-0.1l0.8,14.6v34.5h-5.8V86.7h7.2l25.1,39.5l4.1,7.5h0.1l-0.7-16.3V86.7h5.8v55.3H142
	z M157.1,141.9V86.7h37.7v5.2h-30.9v18.2h24.4v5.3h-24.4v21.3h30.9v5.2H157.1z M230,142.9h-19.9c-2.7,0-7.1-0.3-9.1-2.1v-3.5h28.2
	c4.7,0,5.6-2.7,5.6-5.2v-7.4c0-4.4-1.9-6-7-6.7l-14.4-1.9c-8-1.1-11.9-3.8-11.9-10.6v-7.8c0-6,2.4-12,13.2-12h14.9
	c2.7,0,7.1,0.3,9.1,2.1v3.5h-24.5c-4.9,0-6.3,2.4-6.3,5.9v7.5c0,3.9,3.9,4.8,7.5,5.3l14.1,1.9c8,1.1,12,4.3,12,11.2v9
	C241.2,140.1,237,142.9,230,142.9 M275.8,142.9h-19.9c-2.7,0-7.1-0.3-9.1-2.1v-3.5H275c4.7,0,5.6-2.7,5.6-5.2v-7.4
	c0-4.4-1.9-6-7-6.7l-14.5-1.9c-8-1.1-11.9-3.8-11.9-10.6v-7.8c0-6,2.4-12,13.2-12h14.9c2.7,0,7.1,0.3,9.1,2.1v3.5H260
	c-4.9,0-6.3,2.4-6.3,5.9v7.5c0,3.9,3.9,4.8,7.5,5.3l13.9,1.9c8,1.1,12,4.3,12,11.2v9C287.1,140.1,282.7,142.9,275.8,142.9"/>
</svg>
